<svg id="Biglots_idKaZxu1fb_0" xmlns="http://www.w3.org/2000/svg" width="337.4" height="69.1" viewBox="0 0 337.4 69.1">
  <path id="Path_5" data-name="Path 5" d="M40.1,34.1v-.5c5.1-1.6,7.7-6.7,7.7-11.8,0-13.6-11.6-16.3-23-16.3H0V64.3H29.1c10.3,0,21.5-4.1,21.5-16.2C50.6,41,46.5,36.3,40.1,34.1ZM19.8,19.6h1.5c3.1,0,7.1-.3,7.1,4,0,4.1-3.5,4.4-6.6,4.4H19.9l-.1-8.4Zm2.4,30.6H19.8V40.5h2.1c3.4,0,8.9-.1,8.9,4.8C30.8,50.1,25.7,50.2,22.2,50.2Zm281.6-.7c.1-3.7.2-7.5.5-11.2-2.6-4.3-7.4-6.8-12.2-8.9l-3.7-1.6a28.828,28.828,0,0,1-5.5-3,5.517,5.517,0,0,1-2.4-4.4,3.749,3.749,0,0,1,.1-1.1h0c.6-3.6,3.8-6.1,7.8-6.1,4.1,0,6.4,1.8,8.4,5.4l.4.8.3.6.9-.6,6.5-4.2-.6-1.2a17.6,17.6,0,0,0-15.8-9.4c-8.6,0-16.6,5.6-17.1,14.8v.9c0,9,6.5,12.7,13.1,15.6l3.4,1.5c5.4,2.5,9.5,4.3,9.5,9.8,0,5.4-4.7,9.4-10.1,9.4-5.2,0-9.1-4-9.8-9.1l-.2-1.6-9,2.5.3,1.3c1.9,9.3,9.2,15.6,18.9,15.6A19.023,19.023,0,0,0,304,56.1V51.4h0A7.991,7.991,0,0,1,303.8,49.5ZM54.5,64.2H75.8V5.5H54.5ZM162.9,5.5h-9.2V64.2h24.6V55.5H162.8V5.5Zm105.8,0H232.3v8.7h13.5V64.3H255V14.1h13.7V5.5ZM231.2,19.3a30.768,30.768,0,0,0-52.6,0h0a29.811,29.811,0,0,0-4.4,15.6,30.7,30.7,0,0,0,61.4,0,30.483,30.483,0,0,0-4.4-15.6ZM204.8,56.5a21.638,21.638,0,0,1-21.5-21.7,21.994,21.994,0,0,1,6.5-15.6,21.493,21.493,0,0,1,30,0h0a21.819,21.819,0,0,1,6.5,15.6A21.573,21.573,0,0,1,204.8,56.5ZM111,43.4h9.6c-1,3.6-5.3,5.1-8.6,5.1-6.9,0-11-6.1-11-12.5,0-7.1,4.2-13.6,11.8-13.6a9.033,9.033,0,0,1,8.1,4.5l19.9-7.3C136.2,9.6,122.2,4.5,112,4.5,93.7,4.5,79.6,16,79.6,35.2,79.6,54,94.1,65.1,112,65.1c9.1,0,18.7-3.7,24.9-10.4,6.9-7.5,6.9-15.5,7.1-25.1H111V43.4Z" fill="#fff"/>
  <path id="Path_6" data-name="Path 6" d="M306.5,50.5c.2-17.2,3.1-37.6,8.5-50.5l22.4,4.6c-8.5,13.9-14.2,32-17.3,47.9l-13.6-2Zm.8,17c-.4-3.6-.7-7.6-.8-12l12.7,2c-.7,4.1-1.1,8-1.4,11.6l-10.5-1.6Z" fill="#fff" fill-rule="evenodd"/>
  <g id="Group_1" data-name="Group 1">
    <path id="Path_7" data-name="Path 7" d="M326.2,62.6a2.5,2.5,0,1,1-5,0,4.253,4.253,0,0,1,.2-1.1,5.5,5.5,0,0,1,.7-.9,2.452,2.452,0,0,1,1.6-.6,2.958,2.958,0,0,1,1,.2,3.126,3.126,0,0,1,1.1.9A3.071,3.071,0,0,1,326.2,62.6Zm-2.5-2.1a2.122,2.122,0,1,0,2.1,2.1,4.4,4.4,0,0,0-.2-1,5.547,5.547,0,0,0-.6-.8A2.768,2.768,0,0,0,323.7,60.5Zm.3,2.4.9,1.2h-.7l-.9-1.1v1.1h-.6V61.2h.6a2,2,0,0,1,.9.2.908.908,0,0,1,.3.7c0,.2-.1.3-.2.5q0,.15-.3.3Zm-.6-.4h0c.5,0,.7-.1.7-.4,0-.2-.2-.4-.6-.4h-.1v.8Z" fill="#fff"/>
  </g>
</svg>
