<svg xmlns="http://www.w3.org/2000/svg" width="868.3" height="93.7" viewBox="0 0 868.3 93.7">
  <g id="Bread_Financial_idvX4vgsOb_0" data-name="Bread Financial_idvX4vgsOb_0" transform="translate(-194 -29.4)">
    <rect id="Rectangle_3" data-name="Rectangle 3" width="8.3" height="92.1" transform="translate(1021.8 29.4)" fill="#fff"/>
    <path id="Path_10" data-name="Path 10" d="M600.2,31.6v8c-12.3-1-18.2,4-18,16.1v2.6h18.2v8H582.2v55.1h-8.3v-55H563.2v-8h10.7V55.8c-.2-16.4,9.2-25.5,26.3-24.2" fill="#fff"/>
    <path id="Path_11" data-name="Path 11" d="M210.3,89.8c0,10.5,7.5,17.7,17.4,17.7,10.1,0,17.6-7.2,17.6-17.7s-7.5-17.7-17.6-17.7c-9.9,0-17.4,7.2-17.4,17.7m0-24.1c4.6-5.7,11.2-9.1,20.4-9.1,16.9,0,30.8,14.5,30.8,33.2s-13.9,33.3-30.8,33.3c-9.1,0-15.8-3.3-20.4-9.1v7.3H194V33.2h16.3Z" fill="#fff"/>
    <path id="Path_12" data-name="Path 12" d="M287.5,58.2V69c3.2-8.6,11.2-12.1,19.2-12.1V75.1c-8.5-1.1-19.2,2.7-19.2,16v30.2H271.4v-63h16.1" fill="#fff"/>
    <path id="Path_13" data-name="Path 13" d="M329.7,83.8c1.9-8,7.8-12.8,16.4-12.8,6.9,0,13.6,3.7,15.6,12.8h-32m.1,12.6h47.4a47.679,47.679,0,0,0,.6-6.7c0-18.5-13.2-33.2-31.9-33.2-19.8,0-33.2,14.5-33.2,33.2,0,18.8,13.4,33.2,34.5,33.2,12.1,0,21.5-4.9,27.5-13.4L361.6,102c-2.9,3.7-7.8,6.2-14,6.2-8.5.2-15.4-3.5-17.8-11.8" fill="#fff"/>
    <path id="Path_14" data-name="Path 14" d="M401.8,89.8c0,10.5,7.3,17.7,17.4,17.7,10,0,17.6-7.2,17.6-17.7s-7.3-17.7-17.6-17.7c-10.1,0-17.4,7.2-17.4,17.7m34.8-24.1V58.4h16.3v62.9H436.6V114c-4.6,5.7-11.3,9.1-20.6,9.1-16.8,0-30.6-14.4-30.6-33.2,0-18.7,13.9-33.2,30.6-33.2,9.3-.2,16,3.3,20.6,9" fill="#fff"/>
    <path id="Path_15" data-name="Path 15" d="M495.6,107.6c-10.1,0-17.6-7.2-17.6-17.7s7.3-17.7,17.6-17.7c9.9,0,17.4,7.2,17.4,17.7s-7.5,17.7-17.4,17.7M513,33.2V65.8c-4.6-5.7-11.2-9.1-20.4-9.1-16.9,0-30.8,14.5-30.8,33.2,0,18.8,13.9,33.2,30.8,33.2,9.1,0,15.8-3.4,20.4-9.1v7.3h16.3V33.2Z" fill="#fff"/>
    <path id="Path_16" data-name="Path 16" d="M614.7,45a6.19,6.19,0,0,0,6.1-6.1,6.061,6.061,0,0,0-6.1-6.1,6.19,6.19,0,0,0-6.1,6.1,6.123,6.123,0,0,0,6.1,6.1" fill="#fff"/>
    <rect id="Rectangle_4" data-name="Rectangle 4" width="8.3" height="63.2" transform="translate(610.5 58.2)" fill="#fff"/>
    <path id="Path_17" data-name="Path 17" d="M643.7,68.1c4.9-8,12.1-11.3,21.1-11.3,15.3,0,24.6,10.1,24.6,25.8v38.6h-8.3V82.7c0-11.2-6.2-17.7-17.1-17.7-11,0-20.4,6.5-20.4,23.5v32.9h-8.3v-63h8.3v9.9h.1" fill="#fff"/>
    <path id="Path_18" data-name="Path 18" d="M732.9,114.7a24.9,24.9,0,0,1,0-49.8c14,0,24.7,10.8,24.7,24.9a24.362,24.362,0,0,1-24.7,24.9m24.8-56.5V70.5a29.071,29.071,0,0,0-25.4-13.9,33,33,0,0,0,0,66,29.071,29.071,0,0,0,25.4-13.9V121H766V58.2Z" fill="#fff"/>
    <path id="Path_19" data-name="Path 19" d="M789.4,68.1c4.9-8,12.1-11.3,21.1-11.3,15.3,0,24.7,10.1,24.6,25.8v38.6h-8.3V82.7c0-11.2-6.2-17.7-17.1-17.7-11,0-20.4,6.5-20.4,23.5v32.9H781v-63h8.3l.1,9.7" fill="#fff"/>
    <path id="Path_20" data-name="Path 20" d="M879.4,122.9c12.3,0,23-6.4,28.2-16.4l-6.9-4a23.632,23.632,0,0,1-21.2,12.3,24.9,24.9,0,0,1,0-49.8c9.4,0,17.4,4.9,20.7,12.3l6.9-4c-4.6-9.9-15.2-16.4-27.6-16.4-19,0-33,14.4-33,33-.1,18.5,13.9,33,32.9,33" fill="#fff"/>
    <path id="Path_21" data-name="Path 21" d="M946.9,89.7a24.545,24.545,0,0,0,24.7,24.9c14,0,24.7-10.8,24.7-24.9a24.7,24.7,0,1,0-49.4,0m49.6-19V58.4h8.3v62.9h-8.3V109a29.071,29.071,0,0,1-25.4,13.9,33,33,0,0,1,0-66,28.661,28.661,0,0,1,25.4,13.8" fill="#fff"/>
    <path id="Path_22" data-name="Path 22" d="M930,38.9a6.19,6.19,0,0,1-6.1,6.1,6.061,6.061,0,0,1-6.1-6.1,6.1,6.1,0,1,1,12.2,0" fill="#fff"/>
    <rect id="Rectangle_5" data-name="Rectangle 5" width="7.7" height="63.2" transform="translate(920.1 58.2)" fill="#fff"/>
    <path id="Path_23" data-name="Path 23" d="M1050.3,108.8h-8v1.5h3.4V120h1.4v-9.7h3.4v-1.5h-.2" fill="#fff"/>
    <path id="Path_24" data-name="Path 24" d="M1062.3,108.8h-1.8l-3.5,5.9-3.5-5.9h-1.6V120h1.4v-8.8l3.7,6.1h.2l3.6-6.1V120h1.5V108.8" fill="#fff"/>
  </g>
</svg>
