<svg xmlns="http://www.w3.org/2000/svg" width="117.024" height="32.07" viewBox="0 0 117.024 32.07">
  <g id="Group_3" data-name="Group 3" transform="translate(-505 -1099.214)">
    <path id="Path_28" data-name="Path 28" d="M116.311,20.431h-3.7l-3.124,9.753a21.088,21.088,0,0,0-1.053,4.842m-.149-1.6-4.265-13H92.711a23.821,23.821,0,0,0-3.668-.406c-4.415,0-7.437,2.845-7.437,6.434,0,2.709.95,4.266,4.075,5.757a3.525,3.525,0,0,0-1.97,2.912A2.436,2.436,0,0,0,84.9,37.262c-1.426.711-3.837,1.931-3.837,5.046s3.362,5.216,9.067,5.216c4.618,0,9.372-1.456,9.372-6.062,0-2.912-2.037-4.335-4.448-4.979l-6.113-1.66c-.883-.237-1.154-.406-1.154-.88a1.479,1.479,0,0,1,.509-1.151,6.286,6.286,0,0,0,1.291.135c6.181,0,8.049-3.42,8.049-6.028a4.8,4.8,0,0,0-1.562-3.759h3.889l6.027,17.054M93.22,26.459c0,1.93-1.426,3.217-3.566,3.217-2.106,0-3.633-1.253-3.633-3.217,0-1.9,1.189-3.184,3.7-3.184C91.318,23.275,93.22,24.156,93.22,26.459Zm-5.74,12.09,5.026,1.286c1.359.338,2.309.847,2.309,2.066,0,1.491-1.222,2.506-4.516,2.506-2.615,0-4.958-.745-4.958-2.676C85.341,40.242,86.326,39.327,87.48,38.549Z" transform="translate(505 1083.761)" fill="#fff" fill-rule="evenodd"/>
    <path id="Path_29" data-name="Path 29" d="M75.766,28.524H67.615c.17-2.608,1.291-5.114,4.28-5.046C74.305,23.41,75.766,25.273,75.766,28.524Zm4.89,3.251V29.947c0-5.351-2.852-9.922-8.591-9.922-5.977,0-9.339,4.267-9.339,10.464,0,6.6,3.6,10.6,9.3,10.6,4.618,0,6.791-2.438,7.878-5.114L75.766,34.62a4.078,4.078,0,0,1-3.838,3.014c-3.5,0-4.313-3.455-4.313-5.859Z" transform="translate(505 1083.761)" fill="#fff" fill-rule="evenodd"/>
    <path id="Path_30" data-name="Path 30" d="M64.506,20.025h-7.07V15.453l-4.89,2.031v2.54h-5.03v.02c-2.267.195-4.152,2-5.34,3.57h-.068V20.431h-4.89V40.682h4.89V27.2c1.121-1.219,2.581-3.3,4.992-3.3.173,0,.668-.018,1.282-.04h4.164V34.62c0,3.42,1.324,6.468,5.909,6.468a11.94,11.94,0,0,0,3.8-.61V36.957a6.76,6.76,0,0,1-2.377.406c-2.343,0-2.445-1.389-2.445-3.488V23.866H61.6Z" transform="translate(505 1083.761)" fill="#fff" fill-rule="evenodd"/>
    <path id="Path_31" data-name="Path 31" d="M30.384,28.524h-8.15c.17-2.608,1.291-5.114,4.279-5.046C28.924,23.41,30.384,25.273,30.384,28.524Zm4.89,3.251V29.947c0-5.351-2.852-9.922-8.591-9.922-5.977,0-9.339,4.267-9.339,10.464,0,6.6,3.6,10.6,9.305,10.6,4.618,0,6.791-2.438,7.878-5.114L30.384,34.62a4.077,4.077,0,0,1-3.837,3.014c-3.5,0-4.313-3.455-4.313-5.859Z" transform="translate(505 1083.761)" fill="#fff" fill-rule="evenodd"/>
    <g id="Group_1" data-name="Group 1" transform="translate(505 1083.761)">
      <path id="Path_32" data-name="Path 32" d="M5.094,30.251c0-4.47,1.052-6.773,3.634-6.773,2.139,0,3.09,1.829,3.124,3.759L16.4,26.019a7.38,7.38,0,0,0-7.573-5.994C2.513,20.024,0,24.8,0,30.624c0,5.181,2.105,10.464,8.659,10.464,5.637,0,7.064-3.454,7.946-5.926l-4.415-1.118c-.17,1.388-1.087,3.59-3.4,3.59C5.739,37.634,5.094,34.519,5.094,30.251Z" fill="#fff" fill-rule="evenodd"/>
    </g>
    <path id="Path_33" data-name="Path 33" d="M103.882,47.049c3.464,0,4.551-1.355,5.773-4.978l7.369-21.64h-4.415L104.175,45.6" transform="translate(505 1083.761)" fill="#fff" fill-rule="evenodd"/>
    <path id="Path_34" data-name="Path 34" d="M106.589,42.5h-3.931l-3.139,4.553h4.363l4.461-4.541,2.153-9.075h-3.11l-1.435,6.687Z" transform="translate(505 1083.761)" fill="#fff" fill-rule="evenodd"/>
  </g>
</svg>
