<svg xmlns="http://www.w3.org/2000/svg" version="1.1" xmlns:xlink="http://www.w3.org/1999/xlink" xmlns:svgjs="http://svgjs.dev/svgjs" width="689" height="541" preserveAspectRatio="none" viewBox="0 0 689 541"><g mask="url(&quot;#SvgjsMask3069&quot;)" fill="none"><rect width="689" height="541" x="0" y="0" fill="url(&quot;#SvgjsRadialGradient3070&quot;)"></rect><path d="M0 488.42L10 479.04L20 435.22L30 423.97L40 425.87L50 449.82L60 459.94L70 486.37L80 515L90 533.1L100 487L110 520.09L120 504.43L130 444.94L140 434.8L150 424.63L160 476.94L170 487.78L180 468.63L190 456.82L200 407.11L210 391.91L220 329.53L230 270.47L240 280.45L250 337.02L260 365.35L270 329.41L280 291.2L290 248.27L300 217.83L310 220.19L320 190.95L330 176.82L340 242.06L350 284.72L360 301.14L370 302.39L380 349.44L390 355.64L400 365.51L410 298.33L420 244.11L430 224.35L440 183.97L450 120.22L460 124.94L470 61.33L480 24.68L490 34.25L500 64.88L510 73.03L520 55.34L530 39.15L540 67.4L550 69.76L560 130.66L570 95.88L580 144.47L590 110.88L600 176.17L610 129.88L620 119.14L630 83.97L640 141.47L650 104.63L660 38.94L670 6.48L680 52.87L690 54.56" stroke="rgba(79, 70, 229, 1)" stroke-width="2"></path><path d="M0 488.42L10 479.04L20 435.22L30 423.97L40 425.87L50 449.82L60 459.94L70 486.37L80 515L90 533.1L100 487L110 520.09L120 504.43L130 444.94L140 434.8L150 424.63L160 476.94L170 487.78L180 468.63L190 456.82L200 407.11L210 391.91L220 329.53L230 270.47L240 280.45L250 337.02L260 365.35L270 329.41L280 291.2L290 248.27L300 217.83L310 220.19L320 190.95L330 176.82L340 242.06L350 284.72L360 301.14L370 302.39L380 349.44L390 355.64L400 365.51L410 298.33L420 244.11L430 224.35L440 183.97L450 120.22L460 124.94L470 61.33L480 24.68L490 34.25L500 64.88L510 73.03L520 55.34L530 39.15L540 67.4L550 69.76L560 130.66L570 95.88L580 144.47L590 110.88L600 176.17L610 129.88L620 119.14L630 83.97L640 141.47L650 104.63L660 38.94L670 6.48L680 52.87L690 54.56L690 541L0 541z" fill="url(&quot;#SvgjsLinearGradient3071&quot;)"></path></g><defs><mask id="SvgjsMask3069"><rect width="689" height="541" fill="#ffffff"></rect></mask><radialGradient cx="100%" cy="0%" r="876.01" gradientUnits="userSpaceOnUse" id="SvgjsRadialGradient3070"><stop stop-color="rgba(88, 56, 202, 1)" offset="0"></stop><stop stop-color="rgba(18, 19, 21, 1)" offset="0.65"></stop></radialGradient><linearGradient x1="50%" y1="0%" x2="50%" y2="100%" id="SvgjsLinearGradient3071"><stop stop-opacity="0.65" stop-color="rgba(79, 70, 229, 1)" offset="0"></stop><stop stop-opacity="0" stop-color="#ffffff" offset="0.8"></stop></linearGradient></defs></svg>