<svg xmlns="http://www.w3.org/2000/svg" width="200.606" height="34.975" viewBox="0 0 200.606 34.975">
  <g id="Freshworks_Inc_idhetkWQi6_0" data-name="Freshworks Inc_idhetkWQi6_0" transform="translate(-39.3)">
    <g id="Group_1" data-name="Group 1" transform="translate(39.3)">
      <path id="Path_5" data-name="Path 5" d="M50.917,1.249c-6.246,0-8.494,4.372-8.494,8.494v2.5H41.049a1.749,1.749,0,1,0,0,3.5h1.374V32.976a1.749,1.749,0,1,0,3.5,0V15.614h4a1.749,1.749,0,1,0,0-3.5h-4v-2.5c0-2.248.874-5,4.872-5a1.708,1.708,0,0,0,1.749-1.749,1.509,1.509,0,0,0-1.624-1.624ZM65.032,11.617a7.261,7.261,0,0,0-6.246,3v-1a1.708,1.708,0,0,0-1.749-1.749,1.815,1.815,0,0,0-1.874,1.749V32.851a1.749,1.749,0,1,0,3.5,0V22.234c0-4.5,2.373-7.12,6.246-7.12a1.708,1.708,0,0,0,1.749-1.749c.25-.874-.625-1.749-1.624-1.749ZM87.266,21.11a10.574,10.574,0,0,0-1.749-6,8.5,8.5,0,0,0-7.495-3.622c-6.37,0-9.993,4.247-9.993,11.617,0,7.62,3.622,11.742,10.492,11.742a10.765,10.765,0,0,0,7.62-2.748,1.714,1.714,0,0,0,.625-1.249,1.653,1.653,0,0,0-1.624-1.624,1.23,1.23,0,0,0-1,.375,8.513,8.513,0,0,1-5.5,2c-4.122,0-6.745-2.748-6.87-7.12H85.142c2.123-.125,2.123-2.123,2.123-3.373Zm-9.243-6.246c3.747,0,5.621,2.123,5.746,6.246H71.652C72.027,17.113,74.275,14.864,78.022,14.864Zm21.485,6.5c-2.748-.874-5-1.749-5-3.747,0-2.248,2.5-2.5,3.872-2.5a6.636,6.636,0,0,1,5,1.874,1.6,1.6,0,0,0,1.249.5,1.653,1.653,0,0,0,1.624-1.624,2.371,2.371,0,0,0-.375-1.124c-1.5-2-4.122-3.123-7.37-3.123-4.622,0-7.495,2.248-7.495,6,0,4.5,4,5.871,7.495,7.12,2.623.874,5,1.624,5,3.622,0,2.623-3,3.123-4.747,3.123a7.716,7.716,0,0,1-5.746-2.248,1.487,1.487,0,0,0-1.249-.5,1.653,1.653,0,0,0-1.624,1.624,2.371,2.371,0,0,0,.375,1.124,10.949,10.949,0,0,0,8.369,3.5c5.246,0,8.369-2.5,8.369-6.5-.375-4.622-4.247-5.871-7.744-7.12Zm21.609-9.868a7.532,7.532,0,0,0-6,2.623V1.749a1.749,1.749,0,0,0-3.5,0v31.1a1.749,1.749,0,0,0,3.5,0V21.11q0-6.37,6-6.37c3.872,0,5.371,1.749,5.371,6V32.727a1.749,1.749,0,1,0,3.5,0V20.235c.125-5.746-2.873-8.744-8.869-8.744Zm39.222.375a2.012,2.012,0,0,0-1.749,1.249l-5.121,14.739-4.247-14.739a1.688,1.688,0,0,0-1.749-1.249,1.927,1.927,0,0,0-1.749,1.249l-4.247,14.739-5.121-14.864a1.667,1.667,0,0,0-1.749-1.124,1.708,1.708,0,0,0-1.749,1.749,1.584,1.584,0,0,0,.125.749l6.995,19.111a1.667,1.667,0,0,0,1.749,1.124,1.764,1.764,0,0,0,1.749-1.249l4.122-13.99,4.122,13.99a1.879,1.879,0,0,0,1.749,1.249,2.012,2.012,0,0,0,1.749-1.249l6.995-19.111a1.584,1.584,0,0,0,.125-.749,2.026,2.026,0,0,0-2-1.624Zm13.241-.375c-6.62,0-10.243,4.122-10.243,11.617s3.622,11.742,10.243,11.742,10.243-4.122,10.243-11.742C183.821,15.739,180.2,11.492,173.579,11.492Zm0,20.111c-4.372,0-6.62-2.748-6.62-8.369,0-5.5,2.248-8.369,6.62-8.369s6.62,2.748,6.62,8.369C180.074,28.854,177.951,31.6,173.579,31.6Zm24.233-19.986a7.261,7.261,0,0,0-6.246,3v-1a1.749,1.749,0,1,0-3.5,0V32.851a1.749,1.749,0,1,0,3.5,0V22.234c0-4.5,2.373-7.12,6.246-7.12a1.708,1.708,0,0,0,1.749-1.749A1.786,1.786,0,0,0,197.811,11.617Zm13.865,9.493,7.495-6a1.9,1.9,0,0,0,.749-1.5,1.708,1.708,0,0,0-1.749-1.749,1.615,1.615,0,0,0-1.249.5L206.18,21.11V1.749a1.749,1.749,0,1,0-3.5,0v31.1a1.749,1.749,0,1,0,3.5,0V25.357l2.5-2,8.244,10.492a2.381,2.381,0,0,0,1.5.874,1.708,1.708,0,0,0,1.749-1.749,1.51,1.51,0,0,0-.375-1.124Zm20.485.25c-2.748-.874-5-1.749-5-3.747,0-2.248,2.5-2.5,3.872-2.5a6.636,6.636,0,0,1,5,1.874,1.6,1.6,0,0,0,1.249.5,1.653,1.653,0,0,0,1.624-1.624,2.371,2.371,0,0,0-.375-1.124c-1.5-2-4.122-3.123-7.37-3.123-4.622,0-7.495,2.248-7.495,6,0,4.5,4,5.871,7.495,7.12,2.623.874,5,1.624,5,3.622,0,2.623-3,3.123-4.747,3.123a7.716,7.716,0,0,1-5.746-2.248,1.487,1.487,0,0,0-1.249-.5,1.653,1.653,0,0,0-1.624,1.624,2.371,2.371,0,0,0,.375,1.124,10.949,10.949,0,0,0,8.369,3.5c5.246,0,8.369-2.5,8.369-6.5-.375-4.622-4.247-5.871-7.744-7.12Z" transform="translate(-39.3)" fill="#fff"/>
    </g>
  </g>
</svg>
