<svg xmlns="http://www.w3.org/2000/svg" width="156.593" height="63.283" viewBox="0 0 156.593 63.283">
  <path id="kev5lvl58um7ibo7om" d="M30.444,60.208v4.03H0v-4.03Zm78.292,0v4.031H86.983V60.207Zm47.857,0v4.031H134.84V60.207Zm-33.416,0-1.4,4.031L120.4,60.207Zm-88.383,0H77.568a16.357,16.357,0,0,1-10.327,4.025l-.423.005H34.793v-4.03h0Zm-4.35-8.462v4.03H0v-4.03Zm52.4,0A16.986,16.986,0,0,1,81.456,55.3l-.259.474h-46.4V51.747Zm73.748,0v4.031H134.84V51.742Zm-47.857,0v4.031H86.983V51.742Zm17.374,0-1.4,4.031h-5.85l-1.4-4.031ZM21.745,43.285v4.03H8.7v-4.03Zm61.2,0a17.32,17.32,0,0,1,.476,3.511l.008.519H68.8v-4.03Zm-26.4,0v4.03H43.491v-4.03Zm72.5-.007-1.4,4.03H115.931l-1.4-4.03Zm18.85,0v4.03H134.84v-4.03Zm-39.156,0v4.03H95.684v-4.03Zm-86.99-8.455v4.03H8.7v-4.03Zm56.116,0a16.946,16.946,0,0,1,2.927,3.583l.263.447H43.492v-4.03Zm30.874-.009v4.031H95.684V34.814Zm39.156,0v4.031H134.84V34.814Zm-15.918,0-1.4,4.031H113l-1.4-4.031ZM81.195,26.362a16.963,16.963,0,0,1-2.819,3.673L78,30.391H43.491V26.362Zm-59.45,0v4.029H8.7V26.362Zm126.146-.013V30.38H134.84V26.541l-1.33,3.839H122.054l1.373-4.031Zm-27.743,0,1.373,4.031H110.065l-1.33-3.839V30.38H95.684V26.349ZM21.745,17.9v4.03H8.7V17.9Zm61.679,0a17.139,17.139,0,0,1-.374,3.543l-.11.487H68.8V17.9Zm-26.885,0v4.03H43.491V17.9Zm91.352-.015v4.031H124.937l1.371-4.031Zm-30.624,0,1.372,4.031H95.684V17.884ZM30.444,9.438v4.03H0V9.438Zm50.754,0a17.049,17.049,0,0,1,1.5,3.5l.15.531H34.794V9.438Zm75.4-.019v4.031H127.817L129.19,9.42Zm-42.208,0,1.372,4.031H86.982V9.42ZM30.444.978V5.007H0V.978Zm36.375,0A16.344,16.344,0,0,1,77.266,4.75l.3.256H34.794V.978ZM156.593.956V4.987H130.7L132.071.956Zm-45.1,0,1.372,4.03H86.982V.955Z" transform="translate(0 -0.955)" fill="#fff"/>
</svg>
