<svg xmlns="http://www.w3.org/2000/svg" width="378.2" height="73.1" viewBox="0 0 378.2 73.1">
  <g id="Vertex_Inc._idw-nRM0LD_0" data-name="Vertex Inc._idw-nRM0LD_0" transform="translate(-123 -17.2)">
    <path id="Path_26" data-name="Path 26" d="M496.8,22.1c0-.7-.6-1.1-1.5-1.1h-1.9v2.3h1.9C496.1,23.2,496.8,22.8,496.8,22.1Z" fill="none"/>
    <path id="Path_27" data-name="Path 27" d="M494.9,18.2a5.3,5.3,0,0,0,0,10.6,5.271,5.271,0,0,0,5.3-5.3v-.1A5.25,5.25,0,0,0,494.9,18.2Zm2,8.3L495,24.1h-1.7v2.4h-1V20h2.9c1.4,0,2.4.7,2.4,1.9a1.934,1.934,0,0,1-1.6,1.9l2,2.6h-1.1Z" fill="none"/>
    <path id="Path_28" data-name="Path 28" d="M273.4,31.4H264V50.3h8.8c10.2,0,11.5-3.6,11.5-9V40C284.2,35.7,281.9,31.4,273.4,31.4Z" fill="none"/>
    <path id="Path_113" data-name="Path 113" d="M182.7,18.2H168.9a1.936,1.936,0,0,0-1.8,1.8L155,75.9c-.2,1.1-.5,1.5-1.4,1.5s-1.2-.4-1.4-1.5L140.2,20a2.012,2.012,0,0,0-1.9-1.7H124.8a1.669,1.669,0,0,0-1.8,1.5c0,.2.1.3.1.5l15.8,65.6a5.645,5.645,0,0,0,5.9,4.4h17.6c4.4,0,5.6-3.1,5.9-4.3v-.1c3-12.3,15.8-65.6,15.8-65.6,0-.2.1-.3.1-.5A1.708,1.708,0,0,0,182.7,18.2Z" fill="#fff"/>
    <path id="Path_114" data-name="Path 114" d="M234.2,18.2H193.8a1.9,1.9,0,0,0-1.9,1.9V88.2a1.9,1.9,0,0,0,1.9,1.9h40.4c1.4-.2,1.9-.8,1.9-2v-9a1.9,1.9,0,0,0-1.9-1.9H210.3a1.9,1.9,0,0,1-1.9-1.9V60h25.1a1.9,1.9,0,0,0,1.9-1.9V48.9a1.9,1.9,0,0,0-1.9-1.9H208.4V33.1a1.9,1.9,0,0,1,1.9-1.9h23.9a1.9,1.9,0,0,0,1.9-1.9v-9C236.1,18.9,235.5,18.4,234.2,18.2Z" fill="#fff"/>
    <path id="Path_118" data-name="Path 118" d="M411,18.2H370.6a1.9,1.9,0,0,0-1.9,1.9V88.2a1.9,1.9,0,0,0,1.9,1.9H411c1.4-.2,1.9-.8,1.9-2v-9a1.923,1.923,0,0,0-1.9-2H387a1.9,1.9,0,0,1-1.9-1.9V60h25.1a1.9,1.9,0,0,0,1.9-1.9V48.9a1.9,1.9,0,0,0-1.9-1.9H385.1V33.1a1.9,1.9,0,0,1,1.9-1.9h24a1.923,1.923,0,0,0,2-1.9V20.2C413,18.9,412.4,18.4,411,18.2Z" fill="#fff"/>
    <path id="Path_119" data-name="Path 119" d="M462.5,54.3l20-34.2a1.421,1.421,0,0,0,.2-.6,1.514,1.514,0,0,0-1.5-1.3H466.8a3.242,3.242,0,0,0-2.4,1.8L453.5,39.6,441.5,20c-.6-.9-1.4-1.8-2.4-1.8H423.5a1.5,1.5,0,0,0-1.5,1.3,1.421,1.421,0,0,0,.2.6l20.4,33.2-20.3,35a1.445,1.445,0,0,0-.2.7,1.324,1.324,0,0,0,1.3,1.3h14.5c1.1,0,1.7-.8,2.4-1.9l11.3-20,12.6,20.4a2.75,2.75,0,0,0,2.5,1.5h15.4c.8,0,1.3-.4,1.3-1a1.69,1.69,0,0,0-.3-1Z" fill="#fff"/>
    <path id="Path_120" data-name="Path 120" d="M497.7,22c0-1.2-1-1.9-2.4-1.9h-2.9v6.5h1V24.2h1.7l1.9,2.4h1.2l-2-2.6A2.163,2.163,0,0,0,497.7,22Zm-4.3,1.2V20.9h1.9c.9,0,1.5.4,1.5,1.1,0,.8-.6,1.2-1.5,1.2h-1.9Z" fill="#fff"/>
    <path id="Path_121" data-name="Path 121" d="M494.9,17.2a6.3,6.3,0,1,0,6.3,6.3A6.274,6.274,0,0,0,494.9,17.2Zm0,11.6a5.3,5.3,0,1,1,5.3-5.3v.1A5.315,5.315,0,0,1,494.9,28.8Z" fill="#fff"/>
    <path id="Path_122" data-name="Path 122" d="M288.2,60.7c7.1-2.8,12.5-9.1,12.5-19.4V40c0-17.2-12.6-21.8-21.6-21.8H249.5a1.9,1.9,0,0,0-1.9,1.9V88.2a1.9,1.9,0,0,0,1.9,1.9h12.6a1.9,1.9,0,0,0,1.9-1.9V63.7h7.9l13,24.6c.5.9.9,1.9,1.9,1.9h14.8c1.1,0,1.5-.5,1.5-1.2a2.28,2.28,0,0,0-.3-1.1ZM272.8,50.3H264V31.4h9.4c8.5,0,10.8,4.3,10.8,8.6v1.3C284.3,46.7,282.9,50.3,272.8,50.3Z" fill="#fff"/>
    <path id="Path_123" data-name="Path 123" d="M357.8,18.2H309.7a1.88,1.88,0,0,0-1.9,1.8V30.1a1.815,1.815,0,0,0,1.9,1.8h15.9V88.3a1.9,1.9,0,0,0,1.9,1.9h12.7a1.9,1.9,0,0,0,1.9-1.9V31.9h15.7a2.046,2.046,0,0,0,2-1.8v-10A1.985,1.985,0,0,0,357.8,18.2Z" fill="#fff"/>
  </g>
</svg>
