<svg xmlns="http://www.w3.org/2000/svg" width="281.9" height="83.2" viewBox="0 0 281.9 83.2">
  <g id="Zeta_Global_idwosd8DyC_0" data-name="Zeta Global_idwosd8DyC_0" transform="translate(-153 -27.3)">
    <g id="Group_2" data-name="Group 2">
      <g id="Group_1" data-name="Group 1">
        <path id="Path_24" data-name="Path 24" d="M153.5,41.4h42.4L153,96.4v14.1l59.5-.1L218,96.3l-43.2.1L218,41.2V27.3l-59,.1Zm134,0,5.6-14.1H229.5V99.8c0,4.8,1,6.1,3,8.1,2.5,2,4,2.5,8.9,2.4h46l5.3-13.9H246.1V75.1h20.2l5.6-14.2H246.2V41.4Zm117.8-7c-2-4.5-5.5-7-10.5-7h-7.5l-32.5,83.1h17L379.3,91h31.1l7.5,19.5h17ZM383.7,76.9l11.5-30,11,30Zm-9.5-49.6H304.4l-5.5,13.9h27.9v69.1h15.9V41.2h25.9Z" fill="#fff"/>
      </g>
    </g>
  </g>
</svg>
